<?xml version="1.0" encoding="UTF-8" standalone="no"?>
<!-- Generator: IcoMoon.io -->
<svg xmlns:rdf="http://www.w3.org/1999/02/22-rdf-syntax-ns#" xmlns="http://www.w3.org/2000/svg" fill="#000000" height="32" width="32" version="1.1" xmlns:cc="http://creativecommons.org/ns#" xmlns:dc="http://purl.org/dc/elements/1.1/" viewBox="0 0 32 32">
<metadata>
<rdf:RDF>
<cc:Work rdf:about="">
<dc:format>image/svg+xml</dc:format>
<dc:type rdf:resource="http://purl.org/dc/dcmitype/StillImage"/>
<dc:title/>
</cc:Work>
</rdf:RDF>
</metadata>
<path fill="#FFF" d="M16,0c-8.836,0-16,7.164-16,16s7.164,16,16,16,16-7.164,16-16-7.164-16-16-16zm0,30c-7.72,0-14-6.28-14-14s6.28-14,14-14,14,6.28,14,14-6.28,14-14,14zm-2.226-3.972a2.06,2.06,1080,1,0,4.12,0,2.06,2.06,1080,1,0,-4.12,0zm2.06-22.028c-3.878,0-8,2.818-8,8.042,0,1.104,0.894,2,2,2s2-0.896,2-2c0-2.778,2.074-4.042,4-4.042,1.494,0,4,0.438,4,3.376,0,1.042-0.274,2.258-2.298,3.374-1.376,0.754-3.702,2.712-3.702,5.25,0,1.104,0.894,2,2,2s2-0.896,2-2c0-0.372,0.792-1.286,1.63-1.748,2.898-1.596,4.37-3.91,4.37-6.876,0-5.096-4.018-7.376-8-7.376z"/>
</svg>
