<?xml version="1.0" encoding="UTF-8" standalone="no"?>
<!-- Generator: IcoMoon.io -->
<svg xmlns:rdf="http://www.w3.org/1999/02/22-rdf-syntax-ns#" xmlns="http://www.w3.org/2000/svg" fill="#000000" height="32" width="32" version="1.1" xmlns:cc="http://creativecommons.org/ns#" xmlns:dc="http://purl.org/dc/elements/1.1/" viewBox="0 0 32 32">
<metadata>
<rdf:RDF>
<cc:Work rdf:about="">
<dc:format>image/svg+xml</dc:format>
<dc:type rdf:resource="http://purl.org/dc/dcmitype/StillImage"/>
<dc:title/>
</cc:Work>
</rdf:RDF>
</metadata>
<path fill="#FFF" d="m1.917,19.965,28.166,0c0.86376,0,1.5648-0.70102,1.5648-1.5648,0-0.86376-0.70102-1.5648-1.5648-1.5648h-28.166c-0.86376,0-1.5648,0.70102-1.5648,1.5648,0,0.86376,0.70102,1.5648,1.5648,1.5648zm0-9.3886,28.166,0c0.86376,0,1.5648-0.70102,1.5648-1.5648,0-0.86376-0.70102-1.5648-1.5648-1.5648h-28.166c-0.86376,0-1.5648,0.70102-1.5648,1.5648,0,0.86376,0.70102,1.5648,1.5648,1.5648zm0,18.777,28.166,0c0.86376,0,1.5648-0.70102,1.5648-1.5648,0-0.86376-0.70102-1.5648-1.5648-1.5648h-28.166c-0.86376,0-1.5648,0.70102-1.5648,1.5648,0,0.86376,0.70102,1.5648,1.5648,1.5648z"/>
</svg>
