<?xml version="1.0" encoding="UTF-8" standalone="no"?>
<!-- Generator: Adobe Illustrator 16.0.0, SVG Export Plug-In . SVG Version: 6.00 Build 0)  -->
<svg xmlns:rdf="http://www.w3.org/1999/02/22-rdf-syntax-ns#" xmlns="http://www.w3.org/2000/svg" enable-background="new 0 0 463 158" xml:space="preserve" height="158px" viewBox="0 0 463 158" width="463px" version="1.1" y="0px" x="0px" xmlns:cc="http://creativecommons.org/ns#" xmlns:dc="http://purl.org/dc/elements/1.1/"><metadata><rdf:RDF><cc:Work rdf:about=""><dc:format>image/svg+xml</dc:format><dc:type rdf:resource="http://purl.org/dc/dcmitype/StillImage"/><dc:title/></cc:Work></rdf:RDF></metadata><path d="M28.07,22.662s-0.746,5.917,1.668,8.872c2.425,2.964,6.567,7.047,9.418,2.317,2.854-4.738,2.528-8.229,2.528-10.116,0-1.881-0.587-5.759-2.48,0.325-0.854,1.88-0.45,4.5-4.38,0.804-1.422-1.339-6.246-4.414-6.754-2.202z" fill="#525D65"/><path d="M39.962,42.132c1.013-1.517,3.335-5.273,4.301-8.498,0.971-3.232,1.833-7.48,1.992-9.087,0.161-1.621-0.159-2.694,1.563-0.921,1.716,1.779,32.916,30.733,42.494,34.648,6.721,2.735,9.843,1.938,16.296-0.483,6.463-2.427,14.849-8.128,19.155-10.709,4.296-2.583,14.413-9.041,16.622-10.603,2.199-1.557,2.739-2.465,2.524-0.155-0.218,2.315,0.86,10.431,1.88,12.315,0.275,0.54,0.061,0.757-0.967,1.346-1.023,0.591-15.114,9.196-21.945,12.855-6.83,3.663-19.993,8.768-17.485,17.48,2.518,8.715,13.738,19.402,18.116,23.274,4.372,3.877,17.568,14.816,20.798,17.358,3.223,2.542,6.737,5.133,7.21,5.56,0.461,0.427,0.356,0.54-0.324,1.618-0.682,1.075-2.871,4.301-4.24,7.598-1.354,3.304-2.613,7.292-3.119,8.935-0.496,1.634-0.424,1.498-1.466,0-1.038-1.511-5.74-7.891-8.535-11.334-2.793-3.442-22.307-24.443-28.923-28.368-6.618-3.929-12.534-11.245-34.64,5.271-22.113,16.512-30.99,23.673-34.535,27.007-3.549,3.334-5.996,6.798-4.926,2.256,1.081-4.549,1.542-11.623,1.404-14.9-0.06-2.126-0.14-2.928-0.218-3.499-0.083-0.566,0.292-0.836,1.48-1.695,1.182-0.857,13.464-9.672,19.843-13.545,6.393-3.876,23.46-13.769,26.47-17.5,3.009-3.731,6.601-6.667,3.159-12.837-3.448-6.17-11.265-14.416-25.537-22.662-14.269-8.25-16.583-9.431-17.462-9.882-0.866-0.451-1.15-0.581-0.976-0.847z" fill="#C5D92D"/><path d="M83.672,39.815c-1.312,7.537,2.778,14.532,9.123,15.632,6.35,1.099,12.553-4.109,13.862-11.642,1.303-7.531-2.788-14.526-9.131-15.633-6.347-1.104-12.547,4.11-13.857,11.643z" fill="#525D65"/><path d="M94.166,60.888s-0.071-3.441,0-4.125c0.073-0.676,2.333,0.469,3.153,0.754,0.83,0.291,0.69,0.468,1.62-0.178,0.93-0.647,1.647-1.182,1.647-1.182s1.328-0.822,1.401,0.575c0.071,1.399,0.142,3.545,0.142,3.545s0.145,1.152-1.504,0.222c-1.651-0.937-2.091-2.595-3.951-0.617-1.225,1.056-1.517,1.293-1.517,1.293s-0.98,0.726-0.996-0.287z" fill="#525D65"/><path d="M195.51,42.374s-34.596,1.025-35.367,1.052c-0.535,2.617-2.852,4.582-5.626,4.582-3.174,0-5.749-2.568-5.749-5.744,0-3.173,2.575-5.749,5.749-5.749,2.869,0,5.247,2.108,5.679,4.858,0.48,0.051,35.32,1.001,35.32,1.001z" fill="#525D65"/><path d="M189.47,112.55c-7.255,1.4-13.595,2.101-19.018,2.101-10.416-0.036-18.479-2.855-24.189-8.458-5.245-5.064-7.866-11.69-7.866-19.879,0-8.404,2.621-15.084,7.866-20.041,5.674-5.53,13.738-8.296,24.189-8.296,5.423,0,11.762,0.7,19.018,2.101v52.474zm-18.91-4.36c4.633-0.036,8.817-0.377,12.553-1.024v-41.814c-3.736-0.646-7.919-0.97-12.553-0.97-8.872,0.072-15.516,2.263-19.933,6.572-3.879,3.771-5.818,8.889-5.818,15.354,0,6.43,1.939,11.548,5.818,15.354,4.41,4.23,11.05,6.41,19.93,6.52z" fill="#525D65"/><path d="M210.91,114.65c-8.548,0-12.822-4.453-12.822-13.361v-71.545h6.465v70.521c0,5.999,2.334,8.997,7.003,8.997,1.221,0,2.64-0.179,4.256-0.539l1.563,4.795c-2.45,0.75-4.61,1.13-6.47,1.13z" fill="#525D65"/><path d="M237.74,114.65c-8.548,0-12.822-4.453-12.822-13.361v-71.545h6.465v70.521c0,5.999,2.334,8.997,7.003,8.997,1.221,0,2.64-0.179,4.256-0.539l1.563,4.795c-2.44,0.75-4.6,1.13-6.46,1.13z" fill="#525D65"/><path d="M292.74,65.571c4.884,5.101,7.327,11.979,7.327,20.634h-46.28c0,6.932,2.029,12.337,6.088,16.216,4.058,3.807,8.96,5.729,14.708,5.765,6.573-0.036,12.714-2.101,18.425-6.196l3.825,5.226c-6.753,4.956-14.169,7.435-22.25,7.435-7.399,0-13.774-2.64-19.125-7.919-5.352-5.28-8.027-12.122-8.027-20.526,0-8.476,2.675-15.3,8.027-20.472,5.351-5.207,11.726-7.812,19.125-7.812,7.33,0.011,13.38,2.562,18.16,7.661zm-31.03,2.909c-3.699,2.801-6.106,6.753-7.219,11.852h38.52c-0.791-4.381-2.424-7.865-4.902-10.451-3.484-3.771-7.992-5.657-13.522-5.657-4.82-0.035-9.11,1.383-12.88,4.256z" fill="#525D65"/><path d="M357.76,114.27c-0.323,20.113-11.529,30.169-33.617,30.169-4.777,0-9.428-0.288-13.953-0.862l1.562-6.357c3.556,0.574,7.65,0.862,12.283,0.862,18.209,0,27.314-8.154,27.314-24.459-4.525,0.646-8.728,0.988-12.606,1.024-10.344-0.108-18.407-2.927-24.189-8.458-5.245-5.064-7.866-11.69-7.866-19.879,0-8.404,2.621-15.084,7.866-20.041,5.71-5.495,13.773-8.26,24.189-8.296,5.388,0,11.726,0.7,19.018,2.101v54.208zm-18.96-6.08c4.633-0.036,8.816-0.377,12.552-1.024v-41.814c-3.736-0.646-7.919-0.97-12.552-0.97-8.872,0.072-15.516,2.263-19.934,6.572-3.879,3.771-5.818,8.889-5.818,15.354,0,6.43,1.939,11.548,5.818,15.354,4.42,4.23,11.06,6.41,19.93,6.52z" fill="#525D65"/><path d="M389.71,63.955h-0.593c-11.206,0-16.809,5.585-16.809,16.755v32.378h-6.465v-31.895c0.072-15.516,7.812-23.255,23.22-23.22h0.646v5.98z" fill="#525D65"/><path d="M448.92,86.367c0.036,8.62-2.748,15.552-8.35,20.795-5.245,4.957-11.798,7.453-19.664,7.489-7.83-0.036-14.384-2.532-19.664-7.489-5.531-5.279-8.296-12.229-8.296-20.849,0-8.655,2.765-15.604,8.296-20.849,5.28-4.956,11.834-7.435,19.664-7.435,7.866,0,14.419,2.479,19.664,7.435,5.6,5.317,8.38,12.285,8.35,20.905zm-43.16-16.217c-4.31,4.023-6.465,9.428-6.465,16.216,0,6.716,2.155,12.104,6.465,16.162,3.951,3.771,8.997,5.657,15.139,5.657,6.213,0,11.295-1.886,15.246-5.657,4.31-4.095,6.446-9.5,6.411-16.216,0.035-6.788-2.101-12.175-6.411-16.162-3.951-3.842-9.033-5.764-15.246-5.764-6.14-0.002-11.19,1.92-15.14,5.762z" fill="#525D65"/></svg>
